<svg id="图层_1" data-name="图层 1" xmlns="http://www.w3.org/2000/svg"
     viewBox="0 0 130 30">
    <defs>
        <style>
            .cls-1,.cls-2{fill:#fff;}.cls-2{opacity:0.9;}.cls-3{fill:#ff3c00;}
        </style>
    </defs>
    <title>coinjinja</title>
    <polygon class="cls-1"
             points="59.55 8.61 59.55 20.98 62.5 20.98 62.5 8.61 59.55 8.61"/>
    <path class="cls-1"
          d="M41.74,9.25a8.88,8.88,0,0,0-3.83-.88c-1.88,0-7,.65-7,6.92,0,4,3.2,5.94,6.62,5.94a8.89,8.89,0,0,0,3.68-.74l.19-1.71a4.82,4.82,0,0,1-3.32,1.36c-2.14,0-4.2-1.61-4.2-5.15S35.78,9.5,38,9.5a3.67,3.67,0,0,1,3.06,1.61Z"/>
    <path class="cls-1"
          d="M50.25,8.37c-5.28,0-7,3.89-7,6.43,0,5.15,3.91,6.43,6.67,6.43,5.2,0,7.09-3.69,7.09-6.48C57,10.36,53.88,8.37,50.25,8.37Zm-.34,11.77c-1.51,0-3.69-.88-3.69-5.38,0-2.54,1.27-5.36,3.92-5.36s3.91,2.31,3.91,5.12S52.88,20.14,49.91,20.14Z"/>
    <path class="cls-1"
          d="M80.18,8.59V20.94A1.85,1.85,0,0,1,78.77,23c.12.33.26.9.26.9,1.42-.22,4-.9,4-4.4s.14-10.91.14-10.91Z"/>
    <path class="cls-2"
          d="M107.28,8.59V20.94a1.85,1.85,0,0,1-1.4,2.06c.12.33.26.9.26.9,1.42-.22,4-.9,4-4.4s.14-10.91.14-10.91Z"/>
    <polygon class="cls-1"
             points="93.05 8.59 92.82 20.94 94.43 20.94 94.43 12.3 102.24 20.94 103.67 20.94 103.96 8.59 102.32 8.59 102.47 17.14 94.67 8.59 93.05 8.59"/>
    <polygon class="cls-1"
             points="66.04 8.59 65.81 20.94 67.42 20.94 67.42 12.3 75.23 20.94 76.66 20.94 76.95 8.59 75.31 8.59 75.46 17.14 67.66 8.59 66.04 8.59"/>
    <path class="cls-1"
          d="M118.54,8.56h-1.38L112,20.94h1.74L115,17.33h4.13l1.26,3.61h3.12Zm-3.06,7.68,1.66-4.19,1.6,4.19Z"/>
    <polygon class="cls-1"
             points="86.55 8.61 86.55 20.98 89.5 20.98 89.51 8.62 86.55 8.61"/>
    <path class="cls-3"
          d="M21.14,13.85h0a2.75,2.75,0,0,0-2.22-2.7l-.59-4h.92A2.75,2.75,0,0,0,22,4.38H0A2.75,2.75,0,0,0,2.75,7.13h.92l-.6,4a2.75,2.75,0,0,0-2.22,2.7H2.68L.7,27.21h0a2.75,2.75,0,0,0,3.12-2.32l1.64-11H16.54l1.64,11a2.75,2.75,0,0,0,3.12,2.32l-2-13.36ZM6.46,7.13H9.62v4H5.87Zm5.92,4v-4h3.17l.59,4Z"/>
</svg>